<?xml version="1.0" encoding="UTF-8"?>
<svg id="Layer_2" data-name="Layer 2" xmlns="http://www.w3.org/2000/svg" viewBox="0 0 1045.09 959.04">
  <g id="Layer_1-2" data-name="Layer 1">
    <g fill="#f54900">
      <polygon points="606 0 786.98 117.5 602.49 215.65 424.99 100.51 603 0 606 0"/>
      <path d="M847,959c-.58.66-14.06-6.93-15.67-7.83-14.58-8.15-29.41-16.44-43.18-25.82-96.77-184.33-195.82-367.43-293.86-551.08l-76.6-49.54c-1.71-31.23-.19-62.75-.07-94.07.1-24.37.19-48.78.41-73.11.11-12.67.51-26.25-.28-38.82-.07-1.11-2.03-1.95.77-1.76l175.24,112.3c1.97,2.27,1.28,28.17,1.29,33.25.02,9.61-1.75,25.97-.58,34.99.13,1.01,8.07,15.78,9.37,18.15,1.65,3,3.67,7.07,6.17,9.33v-94.5l188-98.5v153.5l160.58,298.42c24.43,16.99,51.35,30.66,77.42,45.1l-1.65,2.83-179.09,100.01-41.25-22.85,14.14,27.35c3.32,4.59,18.86,8.84,18.86,14.14v208.5Z"/>
      <path d="M638.93,722.92l-438.92,236.08.5-212.99c11.2-6.4,22.31-13.18,33.6-19.4,56.46-31.06,113.73-60.97,170.56-91.44,18.44-9.89,36.52-21.59,55.78-29.21l127.86,22.23c1.71.96,2.82,3.47,3.86,5.14,12.47,20.09,24.97,46.28,36.36,67.64,1.57,2.96,11.23,20.78,10.41,21.94Z"/>
      <polygon points="452.69 590.7 192.46 731.98 8.01 630.49 462.51 391.02 513.98 487.53 452.69 590.7"/>
      <polygon points="183 959 0 857 0 644 183 746.5 183 959"/>
      <path d="M862,748.5l181.5-103.52,1.51,1.49c.04,23.98-.05,48.02,0,71.95.01,6.94-.04,14.02-.04,21.03.02,39.18.49,78.39-.44,117.56l-182.51,101.99v-210.5Z"/>
    </g>
  </g>
</svg>